<svg xmlns="http://www.w3.org/2000/svg" version="1.1" xmlns:xlink="http://www.w3.org/1999/xlink" xmlns:svgjs="http://svgjs.dev/svgjs" width="1500" height="1500" viewBox="0 0 1500 1500"><rect width="1500" height="1500" fill="#f9f9f9"></rect><g transform="matrix(0.6666666666666666,0,0,0.6666666666666666,249.39393939393938,438.58569500674764)"><svg viewBox="0 0 396 247" data-background-color="#f9f9f9" preserveAspectRatio="xMidYMid meet" height="935" width="1500" xmlns="http://www.w3.org/2000/svg" xmlns:xlink="http://www.w3.org/1999/xlink"><g id="tight-bounds" transform="matrix(1,0,0,1,0.2400000000000091,-0.09999999999999432)"><svg viewBox="0 0 395.52 247.2" height="247.2" width="395.52"><g><svg></svg></g><g><svg viewBox="0 0 395.52 247.2" height="247.2" width="395.52"><g transform="matrix(1,0,0,1,92.26388333279999,92.21989205918071)"><svg viewBox="0 0 210.9922333344 62.76021588163857" height="62.76021588163857" width="210.9922333344"><g><svg viewBox="0 0 210.9922333344 62.76021588163857" height="62.76021588163857" width="210.9922333344"><g><svg viewBox="0 0 210.9922333344 62.76021588163857" height="62.76021588163857" width="210.9922333344"><g><path d="M0 62.76v-62.76h210.992v62.76z" fill="#030303" stroke="transparent" stroke-width="0" rx="0%" data-fill-palette-color="tertiary"></path><path d="M2.787 59.974v-57.187h205.419v57.187z" fill="#f9f9f9" stroke="transparent" stroke-width="0" rx="0%" data-fill-palette-color="quaternary"></path><path d="M8.36 54.4v-46.04h194.272v46.04z" fill="#030303" stroke="transparent" stroke-width="0" data-fill-palette-color="tertiary"></path></g><g transform="matrix(1,0,0,1,16.7195633328,16.7195633328)" id="textblocktransform"><svg viewBox="0 0 177.5531066688 29.321089216038576" height="29.321089216038576" width="177.5531066688" id="textblock"><g><svg viewBox="0 0 177.5531066688 29.321089216038576" height="29.321089216038576" width="177.5531066688"><g transform="matrix(1,0,0,1,0,0)"><svg width="177.5531066688" viewBox="-0.1 -33.45 202.53 33.45" height="29.321089216038576" data-palette-color="#f9f9f9"><path d="M23.29-11.06L23.29-31.25 20.75-31.25 20.75-22.71 10.6-22.71 10.6-31.25 8.01-31.25 8.01-11.06 10.6-11.06 10.6-20.14 20.75-20.14 20.75-11.06 23.29-11.06ZM10.69-33.45L18.21-33.45Q20.68-33.45 22.68-32.71 24.68-31.98 26.09-30.71 27.49-29.44 28.25-27.75 29-26.05 29-24.15L29-24.15 29-9.3Q29-7.4 28.25-5.7 27.49-4 26.09-2.73 24.68-1.46 22.68-0.73 20.68 0 18.21 0L18.21 0 10.69 0Q8.23 0 6.23-0.73 4.22-1.46 2.82-2.73 1.42-4 0.66-5.7-0.1-7.4-0.1-9.3L-0.1-9.3-0.1-24.15Q-0.1-26.05 0.66-27.75 1.42-29.44 2.82-30.71 4.22-31.98 6.23-32.71 8.23-33.45 10.69-33.45L10.69-33.45ZM39.6-33.45L47.12-33.45Q49.58-33.45 51.58-32.71 53.59-31.98 54.99-30.71 56.39-29.44 57.15-27.75 57.91-26.05 57.91-24.15L57.91-24.15 57.91-9.3Q57.91-7.4 57.15-5.7 56.39-4 54.99-2.73 53.59-1.46 51.58-0.73 49.58 0 47.12 0L47.12 0 39.6 0Q37.13 0 35.13-0.73 33.13-1.46 31.72-2.73 30.32-4 29.56-5.7 28.81-7.4 28.81-9.3L28.81-9.3 28.81-24.15Q28.81-26.05 29.56-27.75 30.32-29.44 31.72-30.71 33.13-31.98 35.13-32.71 37.13-33.45 39.6-33.45L39.6-33.45ZM51.14-14.94L51.14-18.6 50.8-20.65Q50.68-20.73 50.51-20.9 50.34-21.07 50.22-21.19L50.22-21.19 50.8-21.8 51.14-23.85 51.14-27.25 50.8-29.3 49.27-30.86 46.75-31.2 40.26-31.2 37.77-30.86 36.2-29.3 35.76-26.71 38.4-26.44 38.72-28.34 40.4-28.59 46.6-28.59 48.31-28.34 48.56-26.9 48.56-23.95Q48.51-23.66 48.4-23.28 48.29-22.9 48.22-22.61L48.22-22.61 46.6-22.34 39.82-22.34 39.82-20.04 46.65-20.04 48.31-19.85 48.56-18.41 48.56-15.21Q48.51-14.89 48.4-14.53 48.29-14.16 48.22-13.84L48.22-13.84 46.6-13.6 40.31-13.6 38.82-13.84 38.4-15.75 35.76-15.5 36.2-12.84 37.77-11.3 40.26-11.01 46.75-11.01 49.27-11.3 50.8-12.84 51.14-14.94ZM80.56-11.06L80.56-27.34 80.22-29.39 78.66-30.96 76.17-31.25 70.06-31.25 65.67-30.64 65.67-11.06 68.26-11.06 68.26-28.39 70.16-28.71 76.02-28.71 77.7-28.44 77.95-27 77.95-11.06 80.56-11.06ZM68.5-33.45L76.02-33.45Q78.49-33.45 80.49-32.71 82.49-31.98 83.89-30.71 85.3-29.44 86.05-27.75 86.81-26.05 86.81-24.15L86.81-24.15 86.81-9.3Q86.81-7.4 86.05-5.7 85.3-4 83.89-2.73 82.49-1.46 80.49-0.73 78.49 0 76.02 0L76.02 0 68.5 0Q66.04 0 64.03-0.73 62.03-1.46 60.63-2.73 59.22-4 58.47-5.7 57.71-7.4 57.71-9.3L57.71-9.3 57.71-24.15Q57.71-26.05 58.47-27.75 59.22-29.44 60.63-30.71 62.03-31.98 64.03-32.71 66.04-33.45 68.5-33.45L68.5-33.45ZM97.4-33.45L104.92-33.45Q107.39-33.45 109.39-32.71 111.39-31.98 112.8-30.71 114.2-29.44 114.96-27.75 115.72-26.05 115.72-24.15L115.72-24.15 115.72-9.3Q115.72-7.4 114.96-5.7 114.2-4 112.8-2.73 111.39-1.46 109.39-0.73 107.39 0 104.92 0L104.92 0 97.4 0Q94.94 0 92.94-0.73 90.93-1.46 89.53-2.73 88.13-4 87.37-5.7 86.61-7.4 86.61-9.3L86.61-9.3 86.61-24.15Q86.61-26.05 87.37-27.75 88.13-29.44 89.53-30.71 90.93-31.98 92.94-32.71 94.94-33.45 97.4-33.45L97.4-33.45ZM105.8-18.41L106.17-17.09 106.17-11.06 108.76-11.06 108.76-17.36 107.9-19.6 105.12-20.61 107.81-21.9 108.56-24.1 108.56-26.81 108.27-28.86 106.66-30.91 104.22-31.25 95.11-31.25 95.11-11.06 97.72-11.06 97.72-19.19 104.07-19.19 105.8-18.41ZM97.72-28.66L104.07-28.66 105.8-27.91 105.97-26.49 105.97-23.9 105.61-22.56 104.07-21.8 97.72-21.8 97.72-28.66ZM126.31-33.45L133.83-33.45Q136.29-33.45 138.3-32.71 140.3-31.98 141.7-30.71 143.11-29.44 143.86-27.75 144.62-26.05 144.62-24.15L144.62-24.15 144.62-9.3Q144.62-7.4 143.86-5.7 143.11-4 141.7-2.73 140.3-1.46 138.3-0.73 136.29 0 133.83 0L133.83 0 126.31 0Q123.84 0 121.84-0.73 119.84-1.46 118.43-2.73 117.03-4 116.27-5.7 115.52-7.4 115.52-9.3L115.52-9.3 115.52-24.15Q115.52-26.05 116.27-27.75 117.03-29.44 118.43-30.71 119.84-31.98 121.84-32.71 123.84-33.45 126.31-33.45L126.31-33.45ZM138.71-14.99L138.71-31.25 136.12-31.25 136.12-15.26Q136.07-14.94 135.96-14.58 135.85-14.21 135.76-13.89L135.76-13.89 134.17-13.65 127.92-13.65 126.31-13.89 125.97-15.36 125.97-31.25 123.43-31.25 123.43-14.99 123.72-12.89 125.31-11.35 127.77-11.06 134.32-11.06 136.81-11.35 138.37-12.89 138.71-14.99ZM155.21-33.45L162.73-33.45Q165.2-33.45 167.2-32.71 169.2-31.98 170.61-30.71 172.01-29.44 172.77-27.75 173.52-26.05 173.52-24.15L173.52-24.15 173.52-9.3Q173.52-7.4 172.77-5.7 172.01-4 170.61-2.73 169.2-1.46 167.2-0.73 165.2 0 162.73 0L162.73 0 155.21 0Q152.75 0 150.74-0.73 148.74-1.46 147.34-2.73 145.93-4 145.18-5.7 144.42-7.4 144.42-9.3L144.42-9.3 144.42-24.15Q144.42-26.05 145.18-27.75 145.93-29.44 147.34-30.71 148.74-31.98 150.74-32.71 152.75-33.45 155.21-33.45L155.21-33.45ZM167.32-14.99L167.32-18.7 166.98-20.8 165.42-22.34 162.88-22.61 157.41-22.61 155.92-22.9Q155.8-23.32 155.75-23.65 155.7-23.97 155.58-24.34L155.58-24.34 155.58-26.9 155.92-28.34 157.53-28.66 163.73-28.66 166.03-28.2 166.61-30.86 163.78-31.25 157.36-31.25 154.92-30.91 153.33-29.35 153.01-27.29 153.01-23.95 153.33-21.9 154.92-20.36 157.36-20.04 162.88-20.04 164.37-19.8Q164.44-19.43 164.54-19.12 164.64-18.8 164.71-18.46L164.71-18.46 164.71-15.26Q164.66-14.94 164.55-14.58 164.44-14.21 164.37-13.89L164.37-13.89 162.78-13.65 156.73-13.65 154.33-14.04 153.72-11.4 156.58-11.06 162.93-11.06 165.42-11.35 166.98-12.89 167.32-14.99ZM196.71-11.06L196.71-31.25 194.17-31.25 194.17-22.71 184.02-22.71 184.02-31.25 181.43-31.25 181.43-11.06 184.02-11.06 184.02-20.14 194.17-20.14 194.17-11.06 196.71-11.06ZM184.12-33.45L191.64-33.45Q194.1-33.45 196.1-32.71 198.11-31.98 199.51-30.71 200.91-29.44 201.67-27.75 202.43-26.05 202.43-24.15L202.43-24.15 202.43-9.3Q202.43-7.4 201.67-5.7 200.91-4 199.51-2.73 198.11-1.46 196.1-0.73 194.1 0 191.64 0L191.64 0 184.12 0Q181.65 0 179.65-0.73 177.65-1.46 176.24-2.73 174.84-4 174.08-5.7 173.32-7.4 173.32-9.3L173.32-9.3 173.32-24.15Q173.32-26.05 174.08-27.75 174.84-29.44 176.24-30.71 177.65-31.98 179.65-32.71 181.65-33.45 184.12-33.45L184.12-33.45Z" opacity="1" transform="matrix(1,0,0,1,0,0)" fill="#f9f9f9" class="wordmark-text-0" data-fill-palette-color="quaternary" id="text-0"></path></svg></g></svg></g></svg></g></svg></g><g></g></svg></g></svg></g><g><path d="M98.948 86.647A105.496 105.496 0 0 1 296.572 86.647L294.443 86.647A103.367 103.367 0 0 0 101.077 86.647L98.948 86.647M98.948 160.553A105.496 105.496 0 0 0 296.572 160.553L294.443 160.553A103.367 103.367 0 0 1 101.077 160.553L98.948 160.553" fill="#030303" stroke="transparent" data-fill-palette-color="tertiary"></path></g></svg></g><defs></defs></svg><rect width="395.52" height="247.2" fill="none" stroke="none" visibility="hidden"></rect></g></svg></g></svg>